<svg xmlns="http://www.w3.org/2000/svg" viewBox="0 0 299.89 247.09"><defs><style>.cls-1{fill:#f2f2f2;}</style></defs><title>Asset 12</title><g id="Layer_2" data-name="Layer 2"><g id="Layer_1-2" data-name="Layer 1"><path class="cls-1" d="M2.29,31.79c2.1-4,17.72-25.66,96.47,12a7.35,7.35,0,0,0,4,.69c4.62-.57,14.07-4.65,18.2-27.66C121.62,13.26,129.16,0,132.8,0c7.86.09,22,2,26.18,27.91,4.16,25.75,82.74-28.77,96-4.89,10.58,19.1-3.3,23.07-9.28,23.89a7.37,7.37,0,0,0-4.81,2.7C237.21,54.25,233,64,258.55,66.89A7,7,0,0,1,261.68,68c2.5,1.69,5.2,6.08-2.16,17-10,14.92,23.73,33.72,28.73,36.4a7.14,7.14,0,0,1,1.26.85c5.1,4.24,36.63,32.48-43.47,19.23a7.43,7.43,0,0,0-4.36.58c-4.18,2-11.23,7.1,2.53,16.08C262.32,170,254.45,184,228.44,183.27s-19.9,11.19-4.67,35,3.33,35-28.77,25.27-27.12-12.75-39.08-8.64c-11.57,4-24.45-31.36,14.55-38.55a7.38,7.38,0,0,0,5.79-5.33c2-7.47,2.21-20.4-24.86-12.08-36.9,11.35-18.9,11.18-38.77,25.37-15.5,11.06-28.09,7.5-32.88,5.39a7.28,7.28,0,0,1-3.36-3c-3-5.13-8.72-19.49,13-30.19,23.06-11.37,16.63-28.34,14.33-32.94a7.69,7.69,0,0,1-.75-2.57c-.65-6-5.68-29.06-44-11.2-40.42,18.83-34.47-10.45-33.31-15.09a6.37,6.37,0,0,0,.19-1.06C26.06,111,28.62,97,55.53,86.89c23.76-9,8.29-24.52.94-30.52a7.31,7.31,0,0,0-6.38-1.46c-5.17,1.28-16.69,2.61-33.89-3.66C-4.7,43.64,0,35,1.6,32.89A7.81,7.81,0,0,0,2.29,31.79Z"/></g></g></svg>