<svg xmlns="http://www.w3.org/2000/svg" viewBox="0 0 973.96 985.32"><defs><style>.cls-1{fill:#f2f2f2;}</style></defs><title>Asset 11</title><g id="Layer_2" data-name="Layer 2"><g id="Layer_1-2" data-name="Layer 1"><path class="cls-1" d="M186.79,374.94s235.76,48.75,253.86-150.43a29.35,29.35,0,0,0,.09-4c-.35-8.18-3.29-35.88-25.95-63.59,0,0-20-24,26-50,33.8-19.1,47.63,5,52.58,19.12a29.71,29.71,0,0,1,1.13,15.22c-4.27,23.09-15,101.7,35.29,107.66,53.91,6.4,58.56-85.73,59-101.67a29.11,29.11,0,0,0-.18-4.07C586.75,127,576,3.5,670.66,0a29.1,29.1,0,0,1,8.71,1C697.73,6,763.72,29.69,738,111.61A29.89,29.89,0,0,1,728.13,126c-34.26,27.33-184,160.92-50.4,313.7.62.71,1.2,1.44,1.75,2.2,6.59,9.19,60.66,78.8,192.31,90,116.87,9.95,105.26,88.6,97.87,115.23A29.85,29.85,0,0,1,960.2,662c-23.88,20.28-107.12,77.37-156.41-62-55-155.51-204.42-35.86-219.73-23.07-.85.7-1.72,1.35-2.63,2-14,9.33-130.69,91.25-51.64,189.11,72.56,89.84,49.61,150.58,42,165.45a31,31,0,0,0-2.63,7.29c-2.87,12.88-18.79,54-104.35,42.68a29.64,29.64,0,0,1-8-2.17c-17.53-7.58-71.86-44.11,3.51-189.44.21-.41.44-.81.67-1.22,3-5.26,28.5-62.78-145.77-258-.28-.32-.56-.65-.83-1-5.32-6.58-71.44-82.92-204.36,14a29.82,29.82,0,0,1-8.61,4.39C84.25,555.33,29.53,565,1.63,481.53A28.71,28.71,0,0,1,.28,475c-1.42-15.79-.7-75.44,85.84-104.87.31-.11.63-.21.93-.33C90.22,368.64,121.48,357.91,186.79,374.94Z"/></g></g></svg>