<svg xmlns="http://www.w3.org/2000/svg" viewBox="0 0 355.44 234.59"><defs><style>.cls-1,.cls-2,.cls-3{fill:none;stroke:#000;stroke-miterlimit:10;}.cls-1{stroke-width:9px;}.cls-2{stroke-width:17px;}.cls-3{stroke-width:8px;}</style></defs><title>Asset 14</title><g id="Layer_2" data-name="Layer 2"><g id="Layer_1-2" data-name="Layer 1"><line class="cls-1" x1="105.58" y1="87.5" x2="105.58" y2="226.09"/><line class="cls-1" x1="179.47" y1="87.91" x2="179.47" y2="226.5"/><line class="cls-1" x1="249.47" y1="157" x2="40.13" y2="157"/><polygon class="cls-2" points="249.97 87.5 105.47 87.5 12.47 87.5 66.9 226.09 105.47 226.09 249.97 226.09 288.54 226.09 342.97 87.5 249.97 87.5"/><line class="cls-1" x1="249.86" y1="87.5" x2="249.86" y2="226.09"/><line class="cls-1" x1="105.97" y1="157" x2="315.31" y2="157"/><path class="cls-3" d="M105.47,87.5H342.53a48.74,48.74,0,0,0,.94-9.5A48,48,0,0,0,251.3,59.2a62,62,0,0,0-109.52-7.86A66,66,0,0,0,14.83,87.5Z"/></g></g></svg>