<svg xmlns="http://www.w3.org/2000/svg" viewBox="0 0 368.28 216.58"><defs><style>.cls-1{fill:none;stroke:#000;stroke-miterlimit:10;stroke-width:7px;}</style></defs><title>Asset 13</title><g id="Layer_2" data-name="Layer 2"><g id="Layer_1-2" data-name="Layer 1"><path class="cls-1" d="M184.28,81.41C165,82,162.18,85,162.18,85L21.48,178s-40.46,36.23,0,35,146.74,0,146.74,0h31.84s106.28-1.21,146.74,0,0-35,0-35L206.1,85s-2.5-3-21.82-3.62Z"/><path d="M165.28,33.41a22.38,22.38,0,0,1,5.36-16.29c8.85-9.78,28.7-8.62,39.06-2,6.41,4.09,9,11.27,8.78,17.84,0,.74-.11,1.47-.17,2.2.23-3,0,.94-.05,1.43a24,24,0,0,1-.81,5C215.88,47,212,50.8,207.18,53.4c-6.77,3.66-15.22,5.19-22.9,5a5.07,5.07,0,0,0-5,5v15.5c0,6.44,10,6.45,10,0V63.41l-5,5a58.45,58.45,0,0,0,27.18-6c11.74-6,16.19-16.51,17-28.52a30,30,0,0,0-11-25.54C204.74-1.5,181.55-3.13,168.18,6.11,159.62,12,154.6,23,155.28,33.41c.42,6.39,10.42,6.44,10,0Z"/></g></g></svg>